<svg width="23" height="57" viewBox="0 0 23 57" fill="none" xmlns="http://www.w3.org/2000/svg">
<path d="M12.5454 1.49999C12.5454 0.671559 11.8738 -7.51019e-06 11.0454 0C10.217 7.51019e-06 9.5454 0.671586 9.54541 1.50001L11.0454 1.5L12.5454 1.49999ZM9.98525 56.5607C10.571 57.1465 11.5208 57.1464 12.1066 56.5606L21.6524 47.0146C22.2382 46.4288 22.2382 45.4791 21.6524 44.8933C21.0666 44.3075 20.1169 44.3075 19.5311 44.8933L11.0459 53.3787L2.56052 44.8935C1.97473 44.3077 1.02498 44.3077 0.4392 44.8935C-0.146581 45.4793 -0.146572 46.429 0.43922 47.0148L9.98525 56.5607ZM11.0454 1.5L9.54541 1.50001L9.5459 55.5L11.0459 55.5L12.5459 55.5L12.5454 1.49999L11.0454 1.5Z" fill="white"/>
</svg>
