<svg width="57" height="23" viewBox="0 0 57 23" fill="none" xmlns="http://www.w3.org/2000/svg">
<path d="M1.5 9.54596C0.671573 9.54596 0 10.2175 0 11.046C0 11.8744 0.671573 12.546 1.5 12.546V11.046V9.54596ZM56.5607 12.1066C57.1464 11.5208 57.1464 10.5711 56.5607 9.9853L47.0147 0.439358C46.4289 -0.146429 45.4792 -0.146429 44.8934 0.439358C44.3076 1.02514 44.3076 1.97489 44.8934 2.56068L53.3787 11.046L44.8934 19.5312C44.3076 20.117 44.3076 21.0668 44.8934 21.6526C45.4792 22.2383 46.4289 22.2383 47.0147 21.6526L56.5607 12.1066ZM1.5 11.046V12.546H55.5V11.046V9.54596H1.5V11.046Z" fill="white"/>
</svg>
