<svg width="22" height="18" viewBox="0 0 22 18" fill="none" xmlns="http://www.w3.org/2000/svg">
<path d="M19.6282 15.4329L19.0663 14.8634V14.8634L19.6282 15.4329ZM12.7998 15.789C12.358 15.789 11.9998 16.1472 11.9998 16.589C11.9998 17.0308 12.358 17.389 12.7998 17.389V16.589V15.789ZM19.6282 1.95613L19.0663 2.52555V2.52555L19.6282 1.95613ZM4.40774 0.81901L4.33035 0.0227621L4.40774 0.81901ZM-0.000195324 5.24066C-0.000195324 5.68249 0.357977 6.04066 0.799805 6.04066C1.24163 6.04066 1.5998 5.68249 1.5998 5.24066H0.799805H-0.000195324ZM0.819066 4.36035L1.61511 4.4398V4.4398L0.819066 4.36035ZM0.799805 6.90817C0.357977 6.90817 -0.000195324 7.26634 -0.000195324 7.70817C-0.000195324 8.15 0.357977 8.50817 0.799805 8.50817V7.70817V6.90817ZM8.9998 16.5895C8.9998 17.0313 9.35798 17.3895 9.7998 17.3895C10.2416 17.3895 10.5998 17.0313 10.5998 16.5895H9.7998H8.9998ZM0.799805 9.86812C0.357977 9.86812 -0.000195324 10.2263 -0.000195324 10.6681C-0.000195324 11.11 0.357977 11.4681 0.799805 11.4681V10.6681V9.86812ZM5.9998 16.589C5.9998 17.0308 6.35798 17.389 6.7998 17.389C7.24163 17.389 7.5998 17.0308 7.5998 16.589H6.7998H5.9998ZM0.799805 12.829C0.357977 12.829 -0.000195324 13.1872 -0.000195324 13.629C-0.000195324 14.0709 0.357977 14.429 0.799805 14.429V13.629V12.829ZM2.9998 16.5895C2.9998 17.0313 3.35798 17.3895 3.7998 17.3895C4.24163 17.3895 4.5998 17.0313 4.5998 16.5895H3.7998H2.9998ZM5.2998 0.800003V1.6H12.7998V0.800003V3.03984e-06H5.2998V0.800003ZM20.7998 8.6945H19.9998C19.9998 10.5782 19.9981 11.9094 19.8607 12.9177C19.7266 13.9019 19.4768 14.4584 19.0663 14.8634L19.6282 15.4329L20.1901 16.0023C20.9512 15.2513 21.2872 14.2993 21.446 13.1337C21.6015 11.9923 21.5998 10.5323 21.5998 8.6945H20.7998ZM12.7998 16.589V17.389C14.6631 17.389 16.14 17.3907 17.2941 17.2375C18.4702 17.0815 19.4306 16.7519 20.1901 16.0023L19.6282 15.4329L19.0663 14.8634C18.6543 15.27 18.0861 15.5184 17.0837 15.6514C16.0593 15.7873 14.7077 15.789 12.7998 15.789V16.589ZM20.7998 8.6945H21.5998C21.5998 6.85666 21.6015 5.39674 21.446 4.2553C21.2872 3.08974 20.9512 2.13773 20.1901 1.3867L19.6282 1.95613L19.0663 2.52555C19.4768 2.93064 19.7266 3.48707 19.8607 4.47129C19.9981 5.47963 19.9998 6.81084 19.9998 8.6945H20.7998ZM12.7998 0.800003V1.6C14.7077 1.6 16.0593 1.60166 17.0837 1.73757C18.0861 1.87057 18.6543 2.11901 19.0663 2.52555L19.6282 1.95613L20.1901 1.3867C19.4306 0.637117 18.4702 0.307498 17.2941 0.151468C16.14 -0.00165224 14.6631 3.03984e-06 12.7998 3.03984e-06V0.800003ZM5.2998 0.800003V3.03984e-06C4.85425 3.03984e-06 4.57424 -0.000942826 4.33035 0.0227621L4.40774 0.81901L4.48513 1.61526C4.63235 1.60095 4.81668 1.6 5.2998 1.6V0.800003ZM0.799805 5.24066H1.5998C1.5998 4.76316 1.6008 4.58317 1.61511 4.4398L0.819066 4.36035L0.0230209 4.2809C-0.00119227 4.5235 -0.000195324 4.80173 -0.000195324 5.24066H0.799805ZM4.40774 0.81901L4.33035 0.0227621C2.05874 0.243546 0.2487 2.01976 0.0230209 4.2809L0.819066 4.36035L1.61511 4.4398C1.76352 2.95282 2.95852 1.76363 4.48513 1.61526L4.40774 0.81901ZM0.799805 7.70817V8.50817C5.33859 8.50817 8.9998 12.1363 8.9998 16.5895H9.7998H10.5998C10.5998 11.2327 6.20215 6.90817 0.799805 6.90817V7.70817ZM0.799805 10.6681V11.4681C3.68173 11.4681 5.9998 13.7708 5.9998 16.589H6.7998H7.5998C7.5998 12.8672 4.5453 9.86812 0.799805 9.86812V10.6681ZM0.799805 13.629V14.429C2.02488 14.429 2.9998 15.4063 2.9998 16.5895H3.7998H4.5998C4.5998 14.5027 2.88844 12.829 0.799805 12.829V13.629Z" fill="white"/>
</svg>
