<svg width="18" height="19" viewBox="0 0 18 19" fill="none" xmlns="http://www.w3.org/2000/svg">
<path d="M3.64973 13.7645H1.5V17.4167H3.64973V13.7645ZM10.0562 8.38518H7.96124V17.4167L10.0562 17.4139V8.38518ZM16.5 1.58333V17.4139L14.3741 17.4167V1.58333H16.5ZM14.1429 0C13.4328 0 12.8571 0.607614 12.8571 1.35714V17.6429C12.8571 18.3924 13.4328 19 14.1429 19H16.7143C17.4244 19 18 18.3924 18 17.6429V1.35714C18 0.607614 17.4244 0 16.7143 0H14.1429ZM6.42857 8.14286C6.42857 7.39333 7.0042 6.78571 7.71428 6.78571H10.2857C10.9958 6.78571 11.5714 7.39333 11.5714 8.14286V17.6429C11.5714 18.3924 10.9958 19 10.2857 19H7.71428C7.0042 19 6.42857 18.3924 6.42857 17.6429V8.14286ZM0 13.5714C0 12.8219 0.575634 12.2143 1.28571 12.2143H3.85714C4.56722 12.2143 5.14286 12.8219 5.14286 13.5714V17.6429C5.14286 18.3924 4.56722 19 3.85714 19H1.28571C0.575634 19 0 18.3924 0 17.6429V13.5714Z" fill="white"/>
</svg>
