<svg width="22" height="22" viewBox="0 0 22 22" fill="none" xmlns="http://www.w3.org/2000/svg">
<path d="M5.93699 3.6952C7.19731 3.12233 8.98671 2.75 11 2.75C13.0133 2.75 14.8027 3.12233 16.063 3.6952C17.3854 4.29628 17.875 4.98614 17.875 5.5C17.875 6.01386 17.3854 6.70372 16.063 7.3048C14.8027 7.87768 13.0133 8.25 11 8.25C8.98671 8.25 7.19731 7.87768 5.93699 7.3048C4.61461 6.70372 4.125 6.01386 4.125 5.5C4.125 4.98614 4.61461 4.29628 5.93699 3.6952ZM17.875 7.83493V9.625C17.875 10.1389 17.3854 10.8287 16.063 11.4298C14.8027 12.0027 13.0133 12.375 11 12.375C8.98671 12.375 7.19731 12.0027 5.93699 11.4298C4.61461 10.8287 4.125 10.1389 4.125 9.625V7.83493C4.49769 8.11313 4.92236 8.35399 5.36802 8.55656C6.84478 9.22781 8.83664 9.625 11 9.625C13.1634 9.625 15.1552 9.22781 16.632 8.55656C17.0776 8.35399 17.5023 8.11313 17.875 7.83493ZM19.25 5.5C19.25 4.11538 18.0467 3.08649 16.632 2.44344C15.1552 1.77219 13.1634 1.375 11 1.375C8.83664 1.375 6.84478 1.77219 5.36802 2.44344C3.95331 3.08649 2.75 4.11538 2.75 5.5V17.875C2.75 19.2596 3.95331 20.2885 5.36802 20.9316C6.84478 21.6028 8.83664 22 11 22C13.1634 22 15.1552 21.6028 16.632 20.9316C18.0467 20.2885 19.25 19.2596 19.25 17.875V5.5ZM17.875 11.9599V13.75C17.875 14.2639 17.3854 14.9537 16.063 15.5548C14.8027 16.1277 13.0133 16.5 11 16.5C8.98671 16.5 7.19731 16.1277 5.93699 15.5548C4.61461 14.9537 4.125 14.2639 4.125 13.75V11.9599C4.49769 12.2381 4.92236 12.479 5.36802 12.6816C6.84478 13.3528 8.83664 13.75 11 13.75C13.1634 13.75 15.1552 13.3528 16.632 12.6816C17.0776 12.479 17.5023 12.2381 17.875 11.9599ZM17.875 16.0849V17.875C17.875 18.3889 17.3854 19.0787 16.063 19.6798C14.8027 20.2527 13.0133 20.625 11 20.625C8.98671 20.625 7.19731 20.2527 5.93699 19.6798C4.61461 19.0787 4.125 18.3889 4.125 17.875V16.0849C4.49769 16.3631 4.92236 16.604 5.36802 16.8066C6.84478 17.4778 8.83664 17.875 11 17.875C13.1634 17.875 15.1552 17.4778 16.632 16.8066C17.0776 16.604 17.5023 16.3631 17.875 16.0849Z" fill="white"/>
</svg>
