<svg width="22" height="25" viewBox="0 0 22 25" fill="none" xmlns="http://www.w3.org/2000/svg">
<path d="M11.9109 11.2211L19.3554 11.2211C20.1531 11.2211 20.7998 12.0357 20.7998 13.0406V22.1383C20.7998 23.1432 20.1531 23.9579 19.3554 23.9579H7.79978C7.00204 23.9579 6.35534 23.1432 6.35534 22.1383V19.3263M6.35534 15.8526H6.37015M2.38711 0.799988H10.3236C11.2003 0.799988 11.9109 1.62944 11.9109 2.65261V17.4736C11.9109 18.4968 11.2003 19.3262 10.3236 19.3262H2.38711C1.51046 19.3262 0.799805 18.4968 0.799805 17.4736V2.65261C0.799805 1.62944 1.51046 0.799988 2.38711 0.799988Z" stroke="white" stroke-width="1.6" stroke-linecap="round" stroke-linejoin="round"/>
</svg>
