<svg width="20" height="23" viewBox="0 0 20 23" fill="none" xmlns="http://www.w3.org/2000/svg">
<path d="M3.57961 3.92595C3.25275 3.74641 3.25275 3.27978 3.57961 3.10024L9.11517 0.0596215C9.43181 -0.114309 9.8202 0.113126 9.8202 0.472479V6.55371C9.8202 6.91306 9.43181 7.1405 9.11517 6.96657L3.57961 3.92595Z" fill="white"/>
<path d="M12.2667 11.9603C12.5138 12.1492 12.5138 12.5192 12.2667 12.708L9.10492 15.1252C8.79251 15.364 8.34002 15.1428 8.34002 14.7513V9.91703C8.34002 9.52551 8.79251 9.30434 9.10492 9.54317L12.2667 11.9603Z" fill="white"/>
<path d="M7.21839 3.95045C7.05918 3.436 7.34963 2.88564 7.88097 2.77968C9.67715 2.42148 11.5456 2.56867 13.2722 3.21464C15.3061 3.97556 17.0281 5.38551 18.1679 7.22327C19.3077 9.06102 19.8009 11.2226 19.5701 13.3688C19.3393 15.5149 18.3976 17.5243 16.8926 19.0815C15.3877 20.6388 13.4048 21.6558 11.2549 21.973C9.10511 22.2902 6.91007 21.8897 5.01425 20.8342C3.11842 19.7787 1.62908 18.1281 0.779933 16.1412C0.059066 14.4545 -0.165802 12.6066 0.120775 10.8096C0.205549 10.2781 0.747345 9.96726 1.27148 10.1041C1.79562 10.2409 2.10227 10.7738 2.03091 11.3074C1.84678 12.6839 2.03557 14.0907 2.58651 15.3798C3.26583 16.9692 4.4573 18.2897 5.97396 19.1341C7.49062 19.9785 9.24665 20.299 10.9665 20.0452C12.6864 19.7914 14.2727 18.9778 15.4767 17.732C16.6806 16.4862 17.434 14.8787 17.6187 13.1618C17.8033 11.4448 17.4087 9.7156 16.4969 8.24539C15.585 6.77519 14.2075 5.64723 12.5804 5.03849C11.2608 4.5448 9.83758 4.41528 8.46021 4.65454C7.92637 4.74728 7.37759 4.4649 7.21839 3.95045Z" fill="white"/>
</svg>
