<svg width="21" height="22" viewBox="0 0 21 22" fill="none" xmlns="http://www.w3.org/2000/svg">
<path d="M13.4257 10.8995C13.4257 12.5564 12.0723 13.8995 10.4029 13.8995C8.73339 13.8995 7.38002 12.5564 7.38002 10.8995C7.38002 9.24265 8.73339 7.89951 10.4029 7.89951C12.0723 7.89951 13.4257 9.24265 13.4257 10.8995Z" stroke="white" stroke-width="1.8"/>
<path d="M12.1792 1.05223C11.8089 0.899994 11.3394 0.899994 10.4004 0.899994C9.46141 0.899994 8.99192 0.899994 8.62158 1.05223C8.12779 1.25522 7.73548 1.64457 7.53095 2.13463C7.43758 2.35833 7.40104 2.6185 7.38674 2.99799C7.36573 3.55567 7.07755 4.07189 6.59056 4.35092C6.10357 4.62996 5.50903 4.61953 5.01188 4.35875C4.67357 4.18129 4.42828 4.08262 4.18638 4.05101C3.65648 3.98177 3.12057 4.12429 2.69655 4.44719C2.37853 4.68937 2.14378 5.09289 1.67429 5.89993C1.2048 6.70696 0.97006 7.11048 0.917738 7.5049C0.847975 8.03079 0.991572 8.56265 1.31694 8.98347C1.46545 9.17555 1.67416 9.33702 1.99809 9.53902C2.47431 9.83598 2.78071 10.3419 2.78068 10.9C2.78065 11.4581 2.47426 11.9639 1.99809 12.2608C1.67411 12.4629 1.46536 12.6243 1.31684 12.8164C0.991473 13.2373 0.847877 13.7691 0.917639 14.295C0.969961 14.6894 1.20471 15.093 1.6742 15.9C2.14368 16.707 2.37843 17.1105 2.69645 17.3527C3.12047 17.6756 3.65638 17.8181 4.18628 17.7489C4.42817 17.7173 4.67344 17.6186 5.01172 17.4412C5.50891 17.1804 6.10349 17.17 6.59051 17.449C7.07753 17.7281 7.36572 18.2443 7.38674 18.8021C7.40104 19.1815 7.43758 19.4417 7.53095 19.6654C7.73548 20.1554 8.12779 20.5448 8.62158 20.7478C8.99192 20.9 9.46141 20.9 10.4004 20.9C11.3394 20.9 11.8089 20.9 12.1792 20.7478C12.673 20.5448 13.0653 20.1554 13.2698 19.6654C13.3632 19.4416 13.3997 19.1815 13.414 18.802C13.4351 18.2443 13.7232 17.7281 14.2102 17.449C14.6972 17.1699 15.2918 17.1803 15.789 17.4411C16.1273 17.6186 16.3725 17.7172 16.6144 17.7488C17.1443 17.8181 17.6802 17.6756 18.1042 17.3527C18.4223 17.1105 18.657 16.707 19.1265 15.8999C19.596 15.0929 19.8307 14.6894 19.883 14.295C19.9528 13.7691 19.8092 13.2372 19.4838 12.8164C19.3353 12.6243 19.1266 12.4628 18.8026 12.2608C18.3265 11.9639 18.0201 11.458 18.0201 10.8999C18.0201 10.3418 18.3265 9.83608 18.8026 9.53918C19.1266 9.33714 19.3354 9.17565 19.4839 8.98354C19.8093 8.56272 19.9529 8.03086 19.8831 7.50497C19.8308 7.11055 19.5961 6.70703 19.1266 5.89999C18.6571 5.09296 18.4224 4.68944 18.1043 4.44726C17.6803 4.12435 17.1444 3.98184 16.6145 4.05108C16.3726 4.08268 16.1273 4.18135 15.7891 4.35879C15.2919 4.61959 14.6973 4.63001 14.2103 4.35096C13.7232 4.0719 13.4351 3.55565 13.414 2.99793C13.3997 2.61847 13.3632 2.35832 13.2698 2.13463C13.0653 1.64457 12.673 1.25522 12.1792 1.05223Z" stroke="white" stroke-width="1.8"/>
</svg>
